<svg xmlns="http://www.w3.org/2000/svg" viewBox="0 0 586.01 165.68"><path d="M394.06 61.46h21.86v80.04h-21.86zm-30.96 0l-21.39 58.24-21.39-58.24h-21.84l29.41 80.04h27.63l29.41-80.04H363.1zM493 79.1V61.46h-26.12V39.38h-21.83v22.08h-17.28V79.1h17.28v34.43c0 17.77 8.89 29.62 31.54 29.62A48 48 0 0 0 493 140l-2.64-17.29a37.77 37.77 0 0 1-9.59 1.27c-6.48 0-13.93-2.77-13.93-11.75V79.1zm-210.78 62.4h23.25L262.4 24.27h-16.85L202.48 141.5h23.25l8.21-22.37h40zm-41.79-40L254 64.62l13.54 36.85zm302.7-42.09c-23.67 0-42.87 18.8-42.87 41.94s19.2 41.94 42.87 41.94S586 124.5 586 101.35s-19.22-41.94-42.88-41.94m0 63.79a21.57 21.57 0 1 1 22-21.55 21.81 21.81 0 0 1-22 21.55M419.08 38A14.09 14.09 0 1 1 405 23.94 14.08 14.08 0 0 1 419.08 38"/><path d="M73.6 36.79A36.8 36.8 0 1 1 36.81 0 36.8 36.8 0 0 1 73.6 36.79" fill="#0af"/><path d="M165.68 120.91a44.76 44.76 0 1 1-44.78-44.77 44.77 44.77 0 0 1 44.78 44.77" fill="#97cf26"/><path d="M149.73 36.79A28.82 28.82 0 1 1 120.9 8a28.83 28.83 0 0 1 28.83 28.81" fill="#ff6163"/><path d="M57.65 120.91a20.85 20.85 0 1 1-20.84-20.83 20.84 20.84 0 0 1 20.84 20.83" fill="#a169f7"/></svg>