<svg xmlns="http://www.w3.org/2000/svg" viewBox="0 0 200 67"><path d="M1.4 4l25.3-2.6L51.87 4v46.51L26.7 65.39 1.4 50.51z" fill="none" stroke="#000" stroke-width="2.79"/><path d="M1.77 25.58l24.06-14 25.92 14v1.49l-25 14.76L1.77 27.07v-1.49z" fill="none" stroke="#000" stroke-width="2.06"/><path d="M26.7 40.34L30.29 38l-3.59-2.37v-2.36l5.83 3.47 1.86-1.11L26.7 31v-2.69l9.79 5.95 2-1.11-11.79-7.32v-2.61l16 9.8v10.42l-16 9.67-16.25-9.42V41l16.25 9.75v-2.6L10.45 38.6v-2.35l16.25 9.42zm55.68 8.8a2.26 2.26 0 0 0 1-.25v2.48a7.06 7.06 0 0 1-2.23.38A3.1 3.1 0 0 1 78 49.89a8.71 8.71 0 0 1-5.83 2c-2.85 0-5.46-1.49-5.46-4.71 0-4 3.72-5.21 6.82-5.21a14 14 0 0 1 4 .5V42c0-2-1.36-3.22-4.09-3.22A12.58 12.58 0 0 0 67.87 40v-3.1a18.7 18.7 0 0 1 5.95-1c4.34 0 7.19 2.11 7.19 6.7V48a1.22 1.22 0 0 0 1.36 1.11m-12-2.1c0 1.48 1.36 2.23 2.85 2.23a6.29 6.29 0 0 0 4.46-1.86V44.8a15.7 15.7 0 0 0-3.35-.37c-1.86.13-4 .75-4 2.61m22.96-11.29A8.62 8.62 0 0 1 98 37v3.1a8 8 0 0 0-4.22-1.24c-2.72 0-5.45 1.49-5.45 5.08S91.06 49 93.78 49a8.18 8.18 0 0 0 4.47-1.24V51a11 11 0 0 1-5.09 1.12c-4.09 0-8.3-2.48-8.3-8.06-.13-5.83 4.34-8.31 8.43-8.31m22.44 13.39a2.22 2.22 0 0 0 1-.25v2.48a6.78 6.78 0 0 1-2.23.37 3.09 3.09 0 0 1-3.1-1.86 8.72 8.72 0 0 1-5.83 2c-2.85 0-5.45-1.49-5.45-4.71 0-4 3.72-5.21 6.82-5.21a14.08 14.08 0 0 1 4 .49V42c0-2-1.37-3.23-4.1-3.23a12.62 12.62 0 0 0-5.62 1.23v-3.1a18.76 18.76 0 0 1 6-1c4.34 0 7.19 2.11 7.19 6.7V48a1.29 1.29 0 0 0 1.36 1.11M103.83 47c0 1.49 1.36 2.24 2.85 2.24a6.29 6.29 0 0 0 4.46-1.86V44.8a15.68 15.68 0 0 0-3.34-.37c-1.86.12-4 .74-4 2.6m31-18V51.5h-3.1V49a7.26 7.26 0 0 1-5.95 2.85c-4.72 0-7.69-3.72-7.69-8.18s3-8.19 7.69-8.19a7.59 7.59 0 0 1 5.58 2.36v-9h3.47v.25zm-8.31 9.67a4.83 4.83 0 0 0-4.84 5.09 4.76 4.76 0 0 0 4.84 5.08 5.43 5.43 0 0 0 5-3.22V42a5.44 5.44 0 0 0-5-3.23m19.47-3c6.08 0 8.31 5 7.31 9.42h-11.62c.37 2.73 3.1 4 5.95 4a10.72 10.72 0 0 0 4.84-1.19v3a13.92 13.92 0 0 1-5.58 1.12c-4.71 0-8.81-2.73-8.81-8.19.13-5.7 4.34-8.18 7.94-8.18m.25 2.85a4.3 4.3 0 0 0-4.59 4h8.56a3.64 3.64 0 0 0-4-4m10.54 13V36.12h3.1v2a6.81 6.81 0 0 1 5.15-2.37 5.26 5.26 0 0 1 4.84 2.48 7.55 7.55 0 0 1 5.45-2.48c4.1 0 5.83 3 5.83 6.2v9.67h-3.47v-9.55a3 3 0 0 0-3.1-3.22 5.19 5.19 0 0 0-3.88 2.15c0 .37.12.74.12 1.11v9.68h-3.47V42.2a3 3 0 0 0-3.1-3.23c-1.86 0-3.23 1.37-4.1 2.36v10.42l-3.34-.13zm39.43-15.5h3.6l-7.2 17.49c-1.61 4-3.84 5.33-6.2 5.33a9.91 9.91 0 0 1-2-.25v-3A6 6 0 0 0 186 56c1.61 0 3-1.24 3.85-3.59l.37-.75-7.32-15.5h3.72l5.21 11.66 4.34-11.66zM71.46 2v8.8a7 7 0 0 1 5-2.1 6 6 0 0 1 6.29 6.3v9.55h-3.47v-9a3.36 3.36 0 0 0-3.6-3.72 5.5 5.5 0 0 0-4.34 2.6v10.16h-3.47V2zm20.71 1.63v5.46h5.58v3h-5.58v7.06c0 2 1 2.73 3 2.73a8.69 8.69 0 0 0 3.1-.62v3a9.59 9.59 0 0 1-4.09.62c-3 0-5.34-1.49-5.34-5.09v-7.72h-2.75v-3h2.73V4.5zm9.92 21V9.09h3.1v2a7.28 7.28 0 0 1 5.09-2.35 5.25 5.25 0 0 1 4.83 2.48 7.53 7.53 0 0 1 5.46-2.48c4.09 0 5.83 3 5.83 6.2v9.67h-3.47V15a3 3 0 0 0-3.1-3.22 5.22 5.22 0 0 0-3.85 2.1c0 .38.13.75.13 1.12v9.67h-3.48v-9.51a3 3 0 0 0-3.1-3.22c-1.86 0-3.22 1.37-4.09 2.36v10.41l-3.35-.12zM131.48 2H135v22.46h-3.47V2z"/></svg>