<svg xmlns="http://www.w3.org/2000/svg" viewBox="0 0 255.8 61.14"><path d="M143.13 17.73a13.67 13.67 0 0 0-12.44 7.18h-.15v-6.29h-6.08v37.92h6.08V34.91a12.7 12.7 0 0 1 3-8.65 9.57 9.57 0 0 1 7.54-3.42q8.81 0 8.81 12.07v21.63H156V33.36q0-7.59-3.3-11.61t-9.57-4.02zm32.3-10.33l-6.08 2v9.26h-6.51v5.14h6.51v22.45q0 11.11 10 11.11a11.69 11.69 0 0 0 5.65-1.19V51a6.37 6.37 0 0 1-4 1.26 5.21 5.21 0 0 1-4.3-1.63c-.86-1.09-1.29-2.9-1.29-5.45V23.8H185v-5.18h-9.55zm42.26 33.07a12.54 12.54 0 0 1-2.87 8.53 9.27 9.27 0 0 1-7.32 3.28q-9.18 0-9.18-12V18.62h-6v22.66q0 16.15 13.56 16.15a12.48 12.48 0 0 0 11.7-6.89h.15v6h6.07V18.62h-6.07zM252.17 18a9 9 0 0 0-6 2.24 13.34 13.34 0 0 0-4 6.24h-.14v-7.86H236v37.92h6.08V37.21q0-6.33 2.61-10a7.76 7.76 0 0 1 6.5-3.67 7.38 7.38 0 0 1 4.59 1.23v-6.3a9.82 9.82 0 0 0-3.61-.47zm-221.91.59h-8L6.26 36h-.15V18.54H0v38.11h6.11V38.33h.15l16.82 18.32h8.57L12.59 36.91z" fill="#231f20"/><path d="M72.23 6.11a20.67 20.67 0 0 1 16.6 8.16l1.7 2.21 2.76.17A19.22 19.22 0 0 1 92 55H54.93a16.48 16.48 0 0 1-5.8-31.92l2.55-1 1-2.57a21.07 21.07 0 0 1 19.55-13.4m0-6.11A27.07 27.07 0 0 0 47 17.41a22.59 22.59 0 0 0 8 43.73h37a25.31 25.31 0 0 0 1.64-50.57A26.8 26.8 0 0 0 72.23 0z" fill="#d70c17"/></svg>