<svg xmlns="http://www.w3.org/2000/svg" viewBox="0 0 212.4 162.5"><g><g><polygon points="167.1 0 167.1 43.5 167.1 43.5 189.8 58.3 212.4 43.5 212.4 43.5 212.4 0 167.1 0"/><path d="M202.8 33.2a4.4 4.4 0 0 0 1.5-.2V38a13.3 13.3 0 0 1-4.3.7c-2.7 0-4.8-1-5.8-3a15.1 15.1 0 0 1-9.6 3.1c-5 0-9.3-2.8-9.2-7.9 0-6.5 6.4-8.4 11.7-8.4a29.5 29.5 0 0 1 6.3.8v-1c0-2.5-2-4.3-6.2-4.3a26.1 26.1 0 0 0-9.4 1.8v-6.3a35.6 35.6 0 0 1 10.3-1.6c8 0 13 3.2 13 11.6l-.1 8.1c0 1.4.8 1.7 1.8 1.7zm-20.6-2.8c0 2.1 2 3.5 4.5 3.5a9.9 9.9 0 0 0 6.6-2.2v-4.4a23.7 23.7 0 0 0-5-.7c-3 0-6 1-6 3.8z" fill="#fff"/><polygon points="32.8 80.5 32.8 91.7 12.4 91.7 1.2 91.7 1.2 80.5 1.2 43 12.4 43 12.4 80.5 32.8 80.5"/><polygon points="54.7 91.7 42.5 91.7 42.5 80.5 42.5 43 54.7 43 54.7 80.5 54.7 91.7"/><path d="M147.9 91.6h11.7L142.8 43H132l-16.8 48.6h11.2l2.9-9.2H145zM132 73.3l5-16.4 5.1 16.4zM86.5 64.3V74H99v5a15.4 15.4 0 0 1-9.5 3.3C81 82.3 75 76 75 67.3s6-15 14.3-15a12.9 12.9 0 0 1 10.7 5.9l.3.4 9.1-5-.2-.5c-3.1-4.9-9.1-10.7-20-10.7C74.7 42.4 64 52.8 64 67.2s10.7 25 25.5 25a26.7 26.7 0 0 0 20.4-9l.1-.2V64.2zM1 130.8v-20h11.5v1.5H2.8v7.6h9v1.5h-9v9.4zM18.6 130.8H17v-20h7.9a5.2 5.2 0 0 1 4 1.4 5.7 5.7 0 0 1 1.4 4.1 6 6 0 0 1-1.2 3.8 4.8 4.8 0 0 1-3.3 1.7l5 9h-2L24 122h-5.3zm6.2-10.3a3.2 3.2 0 0 0 3.5-3.5v-1.4a3.4 3.4 0 0 0-.9-2.4 3.4 3.4 0 0 0-2.6-1h-6.2v8.2zM42.1 131.2a7.4 7.4 0 0 1-6-2.7c-1.4-1.7-2.2-4.3-2.2-7.7s.8-6 2.2-7.8a7.5 7.5 0 0 1 6-2.6 7.4 7.4 0 0 1 6 2.6q2.2 2.7 2.2 7.8t-2.2 7.7a7.4 7.4 0 0 1-6 2.7zm0-1.5a6.4 6.4 0 0 0 2.6-.6 5.4 5.4 0 0 0 2-1.4 7.3 7.3 0 0 0 1.3-2.4 10.3 10.3 0 0 0 .5-3.2v-2.6a10.2 10.2 0 0 0-.5-3.2 7 7 0 0 0-1.3-2.4 5.8 5.8 0 0 0-2-1.5 6.4 6.4 0 0 0-2.6-.5 6.6 6.6 0 0 0-2.6.5 5.8 5.8 0 0 0-2 1.5 6.9 6.9 0 0 0-1.3 2.4 10.2 10.2 0 0 0-.5 3.2v2.5a10.3 10.3 0 0 0 .5 3.3 7 7 0 0 0 1.3 2.4 5.4 5.4 0 0 0 2 1.4 6.6 6.6 0 0 0 2.6.6zM56.8 113h-.1v17.8H55v-20h2.2l10.5 17.7h.1v-17.8h1.7v20.1h-2.2zM81.4 112.3v18.5h-1.8v-18.6H73v-1.5h15.2v1.5zM91.5 130.8v-20h11.8v1.5h-10v7.6h9.5v1.5h-9.5v7.9h10v1.5zM109.8 113v17.8H108v-20h2.1l10.6 17.7h.1v-17.8h1.7v20.1h-2.2zM128.3 110.7h6.4a7.4 7.4 0 0 1 6 2.5q2 2.5 2 7.6c0 3.3-.6 5.9-2 7.5a7.4 7.4 0 0 1-6 2.5h-6.4zm6.4 18.6a5.7 5.7 0 0 0 4.6-2 7.8 7.8 0 0 0 1.7-5.2v-2.6a7.8 7.8 0 0 0-1.6-5.3 5.7 5.7 0 0 0-4.6-2H130v17.1zM8.2 162.5a7.4 7.4 0 0 1-6-2.6C.7 158 0 155.5 0 152s.7-6 2.2-7.7a7.5 7.5 0 0 1 6-2.7 7.4 7.4 0 0 1 6 2.7c1.5 1.7 2.2 4.3 2.2 7.7s-.7 6-2.2 7.8a7.4 7.4 0 0 1-6 2.6zm0-1.5a6.5 6.5 0 0 0 2.7-.5 5.5 5.5 0 0 0 2-1.5 7 7 0 0 0 1.2-2.4 10.3 10.3 0 0 0 .5-3.2v-2.5a10.2 10.2 0 0 0-.5-3.3 6.8 6.8 0 0 0-1.2-2.3 5.9 5.9 0 0 0-2-1.5 6.5 6.5 0 0 0-2.7-.6 6.5 6.5 0 0 0-2.6.6 5.8 5.8 0 0 0-2 1.5 6.9 6.9 0 0 0-1.3 2.3A10.5 10.5 0 0 0 2 151v2.5a10.6 10.6 0 0 0 .4 3.2 7 7 0 0 0 1.3 2.4 5.4 5.4 0 0 0 2 1.5 6.5 6.5 0 0 0 2.6.5zM22.7 142v12.5a14.4 14.4 0 0 0 .2 2.9 5 5 0 0 0 .9 2 3.7 3.7 0 0 0 1.6 1.2 6.9 6.9 0 0 0 2.5.4 6.8 6.8 0 0 0 2.5-.4 3.7 3.7 0 0 0 1.6-1.2 4.9 4.9 0 0 0 .9-2 14.4 14.4 0 0 0 .2-2.9v-12.4H35v12a16.8 16.8 0 0 1-.4 3.8 6.5 6.5 0 0 1-1.2 2.6 4.8 4.8 0 0 1-2.2 1.5 9.8 9.8 0 0 1-3.3.5 9.7 9.7 0 0 1-3.2-.5 4.7 4.7 0 0 1-2.2-1.5 6.3 6.3 0 0 1-1.1-2.6 18.2 18.2 0 0 1-.4-3.8v-12zM46.5 143.6v18.6h-1.7v-18.6h-6.7V142h15.2v1.5zM61.8 162.5a8.3 8.3 0 0 1-4.1-1 9.1 9.1 0 0 1-2.9-2.4l1.3-1a8.2 8.2 0 0 0 2.4 2.1 6.5 6.5 0 0 0 3.3.8 5.3 5.3 0 0 0 3.6-1.1 4 4 0 0 0 1.3-3.1 3.3 3.3 0 0 0-1-2.7 7 7 0 0 0-3-1.3l-1.9-.4a7.7 7.7 0 0 1-4.2-1.9 4.8 4.8 0 0 1-1.2-3.5 5.4 5.4 0 0 1 .4-2.3 4.4 4.4 0 0 1 1.3-1.6 6 6 0 0 1 2-1 9.5 9.5 0 0 1 2.7-.4 8.3 8.3 0 0 1 3.8.8 7 7 0 0 1 2.5 2.3l-1.3 1a5.6 5.6 0 0 0-2-1.9 6.6 6.6 0 0 0-3.1-.7 5.6 5.6 0 0 0-3.4 1A3.3 3.3 0 0 0 57 147a3 3 0 0 0 1 2.6 7.4 7.4 0 0 0 3 1.2l1.9.4a7.7 7.7 0 0 1 4.2 2 5 5 0 0 1 1.2 3.5 5.4 5.4 0 0 1-1.8 4.3 7.1 7.1 0 0 1-4.8 1.5zM80 162.5a7.4 7.4 0 0 1-6-2.6c-1.5-1.8-2.2-4.4-2.2-7.8s.7-6 2.2-7.7a8.2 8.2 0 0 1 12 0c1.5 1.7 2.3 4.3 2.3 7.7s-.8 6-2.2 7.8a7.4 7.4 0 0 1-6.1 2.6zm0-1.5a6.4 6.4 0 0 0 2.6-.5 5.4 5.4 0 0 0 2-1.5 7 7 0 0 0 1.3-2.4 10.3 10.3 0 0 0 .4-3.2v-2.5a10.2 10.2 0 0 0-.4-3.2 6.8 6.8 0 0 0-1.3-2.4 5.8 5.8 0 0 0-2-1.5 6.4 6.4 0 0 0-2.6-.6 6.5 6.5 0 0 0-2.6.6 5.8 5.8 0 0 0-2 1.5 6.9 6.9 0 0 0-1.3 2.4 10.5 10.5 0 0 0-.5 3.2v2.5a10.6 10.6 0 0 0 .5 3.2 7 7 0 0 0 1.3 2.4 5.4 5.4 0 0 0 2 1.5 6.5 6.5 0 0 0 2.6.5zM94.5 142v12.5a14.4 14.4 0 0 0 .2 2.9 5 5 0 0 0 .9 2 3.6 3.6 0 0 0 1.6 1.2 8 8 0 0 0 5 0 3.7 3.7 0 0 0 1.5-1.2 4.9 4.9 0 0 0 1-2 14.4 14.4 0 0 0 .2-2.9v-12.4h1.7v12a16.8 16.8 0 0 1-.4 3.8 6.6 6.6 0 0 1-1.1 2.6 4.8 4.8 0 0 1-2.2 1.5 9.8 9.8 0 0 1-3.3.5 9.6 9.6 0 0 1-3.2-.5 4.7 4.7 0 0 1-2.2-1.5 6.3 6.3 0 0 1-1.1-2.6 18.2 18.2 0 0 1-.4-3.8v-12zM113.9 162.2H112V142h7.9a5.2 5.2 0 0 1 4 1.4 5.7 5.7 0 0 1 1.4 4.2 6 6 0 0 1-1.1 3.7 4.8 4.8 0 0 1-3.3 1.8l5 9h-2l-4.8-9h-5.3zm6.1-10.4a3.2 3.2 0 0 0 3.5-3.4V147a3.2 3.2 0 0 0-3.5-3.4h-6.2v8.2zM137 162.5a7 7 0 0 1-5.8-2.6c-1.3-1.7-2-4.3-2-7.7s.7-6 2-7.8a6.8 6.8 0 0 1 5.8-2.7 7 7 0 0 1 4 1.2 7.5 7.5 0 0 1 2.7 3l-1.5 1a5.8 5.8 0 0 0-2-2.7 5.4 5.4 0 0 0-3.2-1 5.3 5.3 0 0 0-4.4 2 9.2 9.2 0 0 0-1.6 5.8v2.3a9 9 0 0 0 1.6 5.7 5.4 5.4 0 0 0 4.4 2 5.4 5.4 0 0 0 3.4-1 6.2 6.2 0 0 0 2-2.8l1.4.8a7.5 7.5 0 0 1-2.6 3.3 7.2 7.2 0 0 1-4.2 1.2zM148 162.2V142h11.8v1.5h-10v7.6h9.5v1.5h-9.5v8h10v1.5z"/></g></g></svg>
