<svg xmlns="http://www.w3.org/2000/svg" viewBox="0 0 1033.75 220.7"><path fill="#706d6e" d="M1033.74 99.84V81.66h-22.57V53.4l-.76.23-21.2 6.49-.42.12v21.42h-33.47V69.73c0-5.55 1.24-9.8 3.69-12.64 2.43-2.8 5.9-4.23 10.34-4.23 3.19 0 6.49.76 9.81 2.24l.83.37V36.32l-.39-.14c-3.1-1.11-7.31-1.68-12.54-1.68-6.58 0-12.57 1.44-17.78 4.28a30.4 30.4 0 0 0-12.2 12.06c-2.88 5.16-4.33 11.12-4.33 17.7v13.12h-15.72v18.18h15.72v76.59h22.57V99.84h33.47v48.67c0 20.05 9.45 30.2 28.1 30.2 3.06 0 6.29-.36 9.58-1.06 3.35-.72 5.63-1.44 6.98-2.21l.3-.18v-18.35l-.92.61a15.77 15.77 0 0 1-4.54 1.98c-1.8.5-3.3.76-4.46.76-4.37 0-7.6-1.18-9.6-3.5-2.03-2.34-3.06-6.44-3.06-12.18V99.84h22.57zm-167.1 60.42c-8.2 0-14.66-2.72-19.2-8.07-4.59-5.37-6.9-13.04-6.9-22.78 0-10.05 2.31-17.91 6.9-23.39 4.55-5.43 10.94-8.2 19.01-8.2 7.82 0 14.05 2.64 18.51 7.84 4.49 5.23 6.76 13.03 6.76 23.2 0 10.3-2.14 18.2-6.36 23.48-4.19 5.26-10.49 7.92-18.73 7.92m1-80.88c-15.62 0-28.03 4.58-36.88 13.6-8.85 9.04-13.33 21.54-13.33 37.16 0 14.84 4.38 26.77 13.01 35.47 8.63 8.7 20.38 13.1 34.92 13.1 15.15 0 27.31-4.64 36.16-13.8 8.85-9.14 13.33-21.52 13.33-36.78 0-15.07-4.2-27.1-12.5-35.73-8.3-8.64-19.98-13.02-34.7-13.02m-86.6 0c-10.64 0-19.43 2.71-26.15 8.08-6.76 5.39-10.18 12.46-10.18 21.02 0 4.45.74 8.4 2.2 11.75a23.61 23.61 0 0 0 6.74 8.81c2.99 2.47 7.6 5.05 13.72 7.68 5.14 2.11 8.97 3.9 11.4 5.31 2.38 1.38 4.07 2.77 5.03 4.12.92 1.33 1.4 3.14 1.4 5.38 0 6.36-4.77 9.46-14.59 9.46-3.63 0-7.79-.76-12.33-2.26a46.37 46.37 0 0 1-12.63-6.4l-.94-.67v21.72l.34.16a55.93 55.93 0 0 0 11.97 3.7 64.1 64.1 0 0 0 12.78 1.47c11.53 0 20.82-2.73 27.6-8.12 6.82-5.43 10.28-12.67 10.28-21.53 0-6.38-1.87-11.86-5.53-16.28-3.65-4.38-9.97-8.4-18.79-11.96-7.03-2.82-11.53-5.16-13.38-6.96-1.8-1.74-2.7-4.2-2.7-7.3a8.13 8.13 0 0 1 3.42-6.75c2.32-1.8 5.55-2.71 9.6-2.71 3.77 0 7.61.6 11.44 1.75a36.75 36.75 0 0 1 9.98 4.63l.93.63v-20.6l-.36-.16a49.3 49.3 0 0 0-10.14-2.83 62.19 62.19 0 0 0-11.11-1.14m-95.16 80.88c-8.2 0-14.65-2.71-19.2-8.06-4.58-5.38-6.9-13.04-6.9-22.79 0-10.05 2.32-17.91 6.9-23.38 4.55-5.44 10.95-8.2 19.02-8.2 7.82 0 14.05 2.63 18.51 7.84 4.49 5.22 6.76 13.03 6.76 23.2 0 10.28-2.14 18.19-6.36 23.48-4.19 5.25-10.49 7.91-18.73 7.91m1-80.88c-15.63 0-28.04 4.58-36.88 13.6-8.85 9.04-13.33 21.54-13.33 37.16 0 14.84 4.38 26.77 13.01 35.47 8.63 8.7 20.38 13.1 34.92 13.1 15.14 0 27.31-4.64 36.16-13.8 8.84-9.14 13.33-21.52 13.33-36.78 0-15.07-4.21-27.1-12.5-35.73-8.31-8.64-19.99-13.02-34.7-13.02M602.4 98.07V81.66h-22.3v94.77h22.3v-48.48c0-8.24 1.87-15.02 5.55-20.13 3.64-5.05 8.5-7.62 14.42-7.62 2 0 4.26.34 6.7.99 2.42.65 4.17 1.36 5.2 2.1l.94.68V81.5l-.36-.16c-2.08-.88-5.02-1.33-8.73-1.33-5.6 0-10.62 1.8-14.91 5.35-3.77 3.11-6.5 7.38-8.58 12.71h-.23zm-62.21-18.7c-10.23 0-19.35 2.2-27.11 6.52a43.91 43.91 0 0 0-17.88 18.39c-4.07 7.84-6.14 17.01-6.14 27.23 0 8.96 2 17.17 5.97 24.42a41.94 41.94 0 0 0 16.68 16.86c7.1 3.93 15.29 5.93 24.37 5.93 10.6 0 19.64-2.12 26.89-6.3l.3-.17v-20.42l-.95.68a41.94 41.94 0 0 1-10.9 5.68 32.96 32.96 0 0 1-10.68 2.07c-8.75 0-15.77-2.73-20.87-8.13-5.1-5.4-7.7-12.99-7.7-22.54 0-9.6 2.7-17.39 8.03-23.13 5.3-5.72 12.34-8.63 20.9-8.63 7.33 0 14.47 2.48 21.23 7.38l.93.68V84.37l-.3-.17c-2.54-1.42-6-2.6-10.31-3.49a61.51 61.51 0 0 0-12.46-1.33m-66.48 2.28h-22.3v94.76h22.3V81.66zM462.8 41.29c-3.67 0-6.87 1.25-9.5 3.72a12.3 12.3 0 0 0-3.98 9.3c0 3.63 1.32 6.7 3.94 9.11 2.6 2.41 5.8 3.63 9.54 3.63 3.73 0 6.95-1.22 9.58-3.63a11.9 11.9 0 0 0 3.99-9.11c0-3.56-1.3-6.66-3.88-9.2a13.3 13.3 0 0 0-9.7-3.82m-55.61 33.38v101.76h22.75V44.19h-31.49l-40.02 98.22-38.84-98.22H286.8v132.23h21.38V74.66h.73l41.02 101.76h16.13l40.37-101.75h.74z"/><path fill="#f1511b" d="M104.87 104.87H0V0h104.87v104.87z"/><path fill="#80cc28" d="M220.65 104.87H115.8V0h104.86v104.87z"/><path fill="#00adef" d="M104.86 220.7H0V115.82h104.86v104.86z"/><path fill="#fbbc09" d="M220.65 220.7H115.8V115.82h104.86v104.86z"/></svg>