<svg xmlns="http://www.w3.org/2000/svg" viewBox="0 0 200 39"><path d="M38.79 25.64c0 3.84 2.33 6.11 5.67 6.11 2.62 0 4.65-1.67 4.65-4.15 0-2.83-2.43-3.78-5.52-4.94-6.51-2.37-12-4.44-12-11.63 0-6.51 6-9.95 12.43-9.95 8.39 0 12.57 5.26 12.57 11.26h-8.16c0-3.13-1.56-5.09-4.39-5.09-2.33 0-4.29 1.21-4.29 3.63s2.07 3.59 5 4.65c5.81 2 12.42 4.35 12.42 11.42 0 7.27-5.51 11.31-13.29 11.31-7.58 0-13.33-4.55-13.33-12.64h8.19zM62.59 2h7.48v14.53c1.37-2.53 4.14-4.14 7.93-4.14 3.13 0 5.31 1.06 6.62 2.77 1.52 1.86 2 4.29 2 7.78v14.39h-7.57V24.86c0-3.49-1-5.92-4.29-5.92s-4.69 2.43-4.69 6.17v12.22h-7.48V2zm34-2a4.91 4.91 0 1 1-4.94 4.9A4.85 4.85 0 0 1 96.59 0zm-3.84 13h7.73v24.35h-7.73zm34.91 17.18c0 5.76-5 7.84-11 7.84-6.92 0-11.22-3.19-11.22-8.79H113c0 2.57 1.61 3.59 3.89 3.59 1.86 0 3.19-.66 3.19-2.28 0-1.87-1.92-2.12-6.51-3.64-4-1.26-7.53-2.43-7.53-7.12 0-5.05 4.19-7.42 10.76-7.42 7.08 0 10.51 3.59 10.51 8.24h-7.63a2.86 2.86 0 0 0-3.19-3.19c-1.56 0-2.88.7-2.88 2.18 0 1.77 2.12 2.07 6.22 3.44 4.27 1.23 7.82 2.4 7.82 7.15zM132.81 2h7.48v14.53c1.37-2.53 4.14-4.14 7.89-4.14 3.13 0 5.3 1.06 6.61 2.77 1.52 1.86 2 4.29 2 7.78v14.39h-7.48V24.86c0-3.49-1.06-5.92-4.29-5.92s-4.7 2.43-4.7 6.17v12.22h-7.48V2zm45.11 23.18l9.44 12.18h-9.19l-7.48-10.21v10.2H163V2h7.73v21.31L178.21 13h9.2l-9.49 12.17zM194.78 0a4.91 4.91 0 1 1-4.94 4.9 4.91 4.91 0 0 1 4.94-4.9zM191 13h7.74v24.35H191V13z"/><path d="M19.53 5.59l-6.24 2.55.53-6.84h-6l.52 6.84L2.1 5.59.25 11.06l6.48 1.7-4.66 5.72L7 21.94l3.86-6.32 3.86 6.32 4.89-3.46-4.71-5.72 6.48-1.7-1.85-5.47z" fill="#017cff"/></svg>