<svg xmlns="http://www.w3.org/2000/svg" viewBox="0 0 234.93 139.96"><path d="M12.93 53.09C4.58 53.09.24 48.62 0 39.63c0-.46.16-.76.62-.84L7 37.71a.65.65 0 0 1 .81.43.83.83 0 0 1 0 .22c.24 5.39 1.83 7.6 5.39 7.6s4.87-1.76 4.87-7.39-1.16-7.38-5.17-8.94l-3.09-1.21C2.69 25.56.54 21.82.54 13.79.54 4.9 4.55 0 13.06 0s12.26 4.55 12.69 12.61c0 .45-.24.64-.64.83l-6.11.92c-.46 0-.84-.16-.84-.62-.13-4.26-1.51-6.6-4.85-6.6s-4.71 2-4.71 6.33c0 4.79.92 6.22 5 7.84l3.13 1.21c6.76 2.69 9.42 6.3 9.42 15.11.01 10.16-3.41 15.46-13.22 15.46zM28.58 1.48a.73.73 0 0 1 .67-.75H36a.73.73 0 0 1 .76.7v50.24a.74.74 0 0 1-.68.75h-6.7a.73.73 0 0 1-.76-.7V1.48zm12.42 0a.72.72 0 0 1 .67-.75h8.03a.94.94 0 0 1 1 .75l9.61 35.72h.38V1.48a.73.73 0 0 1 .67-.75h6a.73.73 0 0 1 .76.7v50.24a.73.73 0 0 1-.67.75h-7.78a.93.93 0 0 1-1.05-.75L48.49 16H48v35.67a.72.72 0 0 1-.67.75h-5.6a.73.73 0 0 1-.76-.7zm31.22 0a.72.72 0 0 1 .67-.75H81a1 1 0 0 1 1 .75l9.59 35.72H92V1.48a.72.72 0 0 1 .67-.75h5.73a.73.73 0 0 1 .76.7v50.24a.73.73 0 0 1-.68.75h-7.57a.94.94 0 0 1-1-.75L79.82 16h-.46v35.67a.73.73 0 0 1-.67.75H73a.73.73 0 0 1-.75-.7V1.48zm31.22 0a.73.73 0 0 1 .67-.75h21.31a.73.73 0 0 1 .76.7v5.92a.74.74 0 0 1-.68.76H112a.4.4 0 0 0-.45.34.24.24 0 0 0 0 .12v13.57a.4.4 0 0 0 .34.46h11.67a.73.73 0 0 1 .75.7.06.06 0 0 1 0 .06v5.84a.71.71 0 0 1-.67.75H112a.4.4 0 0 0-.45.35.21.21 0 0 0 0 .11v14.15a.39.39 0 0 0 .34.45h13.51a.73.73 0 0 1 .75.7v5.9a.73.73 0 0 1-.67.76h-21.26a.73.73 0 0 1-.75-.7v-.06zm53.77 50.16l-7.3-22.33c3.88-2.21 6.17-6.47 6.17-13.23 0-11.34-5.55-15.35-14.74-15.35h-10.5a.74.74 0 0 0-.68.75v50.21a.73.73 0 0 0 .76.7h6.68a.71.71 0 0 0 .67-.75v-20a.41.41 0 0 1 .46-.35h3.88l6.3 20.61a.79.79 0 0 0 .84.54h7.08c.38-.05.54-.44.38-.8zm-16-27.58h-2.7a.4.4 0 0 1-.34-.45V8.54a.24.24 0 0 1 0-.12.41.41 0 0 1 .46-.34h2.69c4.61 0 6.58 2 6.58 8.08s-1.9 7.9-6.67 7.9zM3.65 126.9H0v12.78h1.61v-5.23h2c2.44 0 4.48-1 4.48-3.79s-1.98-3.76-4.44-3.76zm.11 6.43l-2.15.06v-5.11h2.15c1.75 0 2.83.68 2.83 2.49 0 1.66-1 2.56-2.83 2.56zm13.1-.58a3 3 0 0 0-3.41-2.57h-.23a3.21 3.21 0 0 0-3.48 2.92h1.51c.11-1.11.7-1.64 2.13-1.64s2 .63 2 2.12v.68H14c-2.41 0-4.71.74-4.71 2.91 0 1.93 1.39 2.76 3.14 2.76a3.36 3.36 0 0 0 2.92-1.35v1.17h1.48v-6.18a3 3 0 0 0 .03-.82zm-4.18 6c-1.32 0-1.79-.64-1.79-1.6 0-1.38 1.34-1.85 3.22-1.85h1.28v1.17h.07c0 1.53-1.18 2.27-2.78 2.27zm7-8.39h1.5V132a3.21 3.21 0 0 1 3.08-1.84v1.39c-1.88.1-3.08.68-3.08 3v5.16h-1.5zm7.04 7.03v-5.78h-1.35v-1.25h1.35v-2.11h1.49v2.14h2.19v1.25h-2.2v5.61c0 .92.42 1.37 1.17 1.37a3.15 3.15 0 0 0 1.14-.2v1.26a3.66 3.66 0 0 1-1.27.19 2.29 2.29 0 0 1-2.52-2 3.53 3.53 0 0 1 0-.48zm14.46-7.02a4.61 4.61 0 0 0-4.61 4.63v.15a4.61 4.61 0 0 0 9.22 0V135a4.61 4.61 0 0 0-4.61-4.63zm3.07 4.76a3.32 3.32 0 0 1 0 .89 3.1 3.1 0 0 1-6.14-.89V135a1.48 1.48 0 0 1 0-.21 3.22 3.22 0 0 1 3.08-3.34c1.86 0 3.07 1.4 3.07 3.57zm4.06-3.52H47v-1.25h1.35v-1.61c0-1.9.94-3 2.8-3a3 3 0 0 1 1.11.18v1.25a3 3 0 0 0-1.06-.19c-1 0-1.37.66-1.37 1.6v1.69h2.3v1.25h-2.32v8.13h-1.5zm15.96-4.71h-2l-4.42 12.84h1.48l1.24-3.7h5.31l1.12 3.72h1.61zm-3.22 7.91l2.16-6.56 2.29 6.56zm8.65.34V135a4.56 4.56 0 0 1 4.3-4.81h.26a3.67 3.67 0 0 1 4.08 3.21h-1.48a2.34 2.34 0 0 0-2.6-1.92 3.2 3.2 0 0 0-3 3.38 1.09 1.09 0 0 0 0 .18v.15c0 2.29 1.25 3.52 3.07 3.52a2.56 2.56 0 0 0 2.7-2.3h1.38a3.91 3.91 0 0 1-4.1 3.52 4.46 4.46 0 0 1-4.6-4.29 3.85 3.85 0 0 1-.01-.49zm10.1 0V135a4.56 4.56 0 0 1 4.3-4.81h.27a3.67 3.67 0 0 1 4.08 3.21H87a2.34 2.34 0 0 0-2.6-1.92 3.22 3.22 0 0 0-3 3.38 1.1 1.1 0 0 0 0 .18v.15c0 2.29 1.25 3.52 3.07 3.52a2.55 2.55 0 0 0 2.69-2.3h1.34a3.91 3.91 0 0 1-4.1 3.52 4.45 4.45 0 0 1-4.6-4.29 3.84 3.84 0 0 1 0-.49zm18.8-.29c0-3.36-2-4.68-4.22-4.68h-.41a4.42 4.42 0 0 0-4 4.8v.66a4.42 4.42 0 0 0 4.56 4.27 3.61 3.61 0 0 0 4-2.87H97c-.19 1.06-1 1.6-2.49 1.6-1.92 0-3-1.19-3-3.32h7.09zm-7-.71a2.79 2.79 0 0 1 2.73-2.68c1.55 0 2.56.72 2.75 2.66zm9.09-3.79h1.5v1.49a3.22 3.22 0 0 1 3-1.61c2 0 3.31 1.07 3.31 3.8v5.76H107v-5.94c0-1.61-.71-2.39-2.21-2.39a2.46 2.46 0 0 0-2.61 2.32 1 1 0 0 0 0 .25v5.68h-1.5zm10.93 7.03v-5.78h-1.35v-1.25h1.35v-2.11h1.49v2.14h2.19v1.25h-2.19v5.61c0 .92.42 1.37 1.17 1.37a3.15 3.15 0 0 0 1.14-.2v1.26a3.57 3.57 0 0 1-1.26.19 2.28 2.28 0 0 1-2.54-2 1.93 1.93 0 0 1 0-.48zm5.83-1.1v-5.95h1.45v5.95c0 1.6.7 2.39 2.16 2.39a2.48 2.48 0 0 0 2.65-2.29.34.34 0 0 1 0-.1v-5.93h1.49v9.4h-1.49v-1.5a3.22 3.22 0 0 1-3 1.61c-1.81.03-3.26-.98-3.26-3.58zm10.62-5.93h1.49V132a3.23 3.23 0 0 1 3.09-1.84v1.39c-1.88.1-3.09.68-3.09 3v5.16h-1.49zm14.28 4.5c0-3.36-2-4.68-4.22-4.68h-.41a4.4 4.4 0 0 0-4 4.8v.15a4.35 4.35 0 0 0 0 .51 4.42 4.42 0 0 0 4.56 4.27 3.61 3.61 0 0 0 4-2.87h-1.49c-.19 1.06-1.05 1.6-2.49 1.6-1.93 0-3-1.19-3-3.32h7.08zm-7-.68a2.79 2.79 0 0 1 2.8-2.71c1.49 0 2.5.72 2.63 2.66zm13.98-7.28h1.61v12.85h-1.61zm4.67 3.46h1.49v1.49a3.23 3.23 0 0 1 3-1.61c1.94 0 3.31 1.07 3.31 3.8v5.76h-1.49v-5.94c0-1.61-.71-2.39-2.21-2.39a2.46 2.46 0 0 0-2.61 2.32 1 1 0 0 0 0 .25v5.68H154zm10.91 7.03v-5.78h-1.35v-1.25h1.35v-2.11h1.5v2.14h2.18v1.25h-2.18v5.61c0 .92.41 1.37 1.17 1.37a3.19 3.19 0 0 0 1.14-.2v1.26a3.66 3.66 0 0 1-1.27.19 2.28 2.28 0 0 1-2.53-2 2.57 2.57 0 0 1-.01-.48zm13.85-2.53c0-3.36-2.06-4.68-4.22-4.68h-.41a4.42 4.42 0 0 0-4 4.8v.15a4.87 4.87 0 0 0 0 .54 4.42 4.42 0 0 0 4.59 4.24 3.61 3.61 0 0 0 4-2.87h-1.49c-.19 1.06-1.05 1.6-2.49 1.6-1.93 0-3-1.19-3-3.32h7zm-7-.73a2.79 2.79 0 0 1 2.8-2.71c1.54 0 2.53.75 2.68 2.71zm9.14-3.77h1.49V132a3.23 3.23 0 0 1 3.09-1.84v1.39c-1.88.1-3.09.68-3.09 3v5.16h-1.49zm13.29 2.4a3 3 0 0 0-3.41-2.56 1.15 1.15 0 0 0-.26 0 3.2 3.2 0 0 0-3.45 3h1.49c.15-1.16.72-1.69 2.15-1.69s2 .63 2 2.12v.68h-1.35c-2.41 0-4.7.74-4.7 2.91 0 1.93 1.31 2.76 3.11 2.78a3.42 3.42 0 0 0 2.93-1.35v1.17h1.49v-6.19a3 3 0 0 0 0-.87zm-4.18 6c-1.32 0-1.79-.64-1.79-1.6 0-1.38 1.34-1.85 3.22-1.85h1.28v1.17h.07c0 1.52-1.18 2.26-2.79 2.26zm6.3-3.61V135a4.55 4.55 0 0 1 4.29-4.81h.27a3.67 3.67 0 0 1 4.08 3.21h-1.48a2.34 2.34 0 0 0-2.63-1.92 3.21 3.21 0 0 0-3 3.38 1.1 1.1 0 0 0 0 .18v.15c0 2.29 1.25 3.52 3.06 3.52a2.55 2.55 0 0 0 2.69-2.3H205a3.91 3.91 0 0 1-4.11 3.5 4.45 4.45 0 0 1-4.54-4.36 2.54 2.54 0 0 1-.04-.4zm11.13 2.24v-5.78h-1.35v-1.25h1.35v-2.11h1.43v2.14h2.19v1.25h-2.19v5.61c0 .92.42 1.37 1.17 1.37a3.15 3.15 0 0 0 1.14-.2v1.26a3.59 3.59 0 0 1-1.27.19 2.28 2.28 0 0 1-2.47-2.07 2.81 2.81 0 0 1 0-.41zm5.69-9.97a1 1 0 1 1 1 1 1 1 0 0 1-1-1zm.27 2.94h1.49v9.4h-1.49zm3.34 0h1.61l2.78 7.87 2.75-7.87h1.6l-3.37 9.4h-1.99l-3.38-9.4zm18.19 4.5c0-3.36-2.06-4.68-4.23-4.68h-.4a4.42 4.42 0 0 0-4 4.8v.15a4.64 4.64 0 0 0 0 .53 4.42 4.42 0 0 0 4.58 4.25 3.61 3.61 0 0 0 4-2.87h-1.5c-.19 1.06-1 1.6-2.49 1.6-1.93 0-3-1.19-3-3.32h7.07zm-7-.73a2.79 2.79 0 0 1 2.79-2.71c1.55 0 2.54.75 2.69 2.71zm-215-19.04c-8.35 0-12.69-4.47-12.93-13.46 0-.46.16-.76.62-.84L7 99.71a.65.65 0 0 1 .81.43.83.83 0 0 1 0 .22c.24 5.39 1.83 7.6 5.39 7.6s4.87-1.76 4.87-7.39-1.05-7.38-5.09-9l-3.09-1.18C2.75 87.7.62 83.82.62 75.79.54 66.9 4.58 62 13.09 62s12.23 4.55 12.69 12.61c0 .45-.24.64-.65.83l-6.13.92c-.45 0-.83-.16-.83-.62-.16-4.26-1.54-6.6-4.88-6.6s-4.71 2-4.71 6.33c0 4.79.92 6.22 5 7.84l3.13 1.21c6.76 2.69 9.42 6.3 9.42 15.11 0 10.16-3.44 15.46-13.25 15.46zm16.32-26.5c0-14.36.3-16.49 1-18.62a11.1 11.1 0 0 1 11.64-8c7.38 0 12 3.8 12.47 12.39 0 .46 0 .84-.54.92l-6.17 1a.64.64 0 0 1-.8-.43.42.42 0 0 1 0-.22c-.24-4.42-1.75-6.3-4.72-6.3A3.8 3.8 0 0 0 38 72.29c-.38 1.21-.54 2.29-.54 16.16s.16 15.06.54 16.17a3.79 3.79 0 0 0 4.12 3.17c3 0 4.47-1.88 4.71-6.3a.65.65 0 0 1 .62-.67h.22l6.17 1.05c.46 0 .62.46.54.91-.46 8.6-5.09 12.4-12.47 12.4a11.15 11.15 0 0 1-11.7-7.9c-.71-2.18-.96-4.36-.96-18.69zm29.64-25.11a.72.72 0 0 1 .53-.75h6.71a.73.73 0 0 1 .83.61.66.66 0 0 1 0 .14v20.37a.4.4 0 0 0 .34.45h8.87a.4.4 0 0 0 .46-.34V63.48a.73.73 0 0 1 .56-.75h6.68a.73.73 0 0 1 .76.7v50.24a.73.73 0 0 1-.68.75h-6.61a.73.73 0 0 1-.76-.7v-21.6a.4.4 0 0 0-.34-.46h-8.9a.4.4 0 0 0-.45.34.24.24 0 0 0 0 .12v21.55a.74.74 0 0 1-.68.75h-6.68a.72.72 0 0 1-.75-.7zM116 113.64l-7.3-22.33c3.88-2.21 6.17-6.47 6.17-13.23 0-11.34-5.55-15.35-14.74-15.35H89.59a.72.72 0 0 0-.64.75v50.21a.71.71 0 0 0 .75.7h6.71a.71.71 0 0 0 .67-.75v-20a.42.42 0 0 1 .46-.35h3.88l6.3 20.61a.79.79 0 0 0 .84.54h7c.44-.05.57-.44.44-.8zm-15.95-27.58h-2.7a.4.4 0 0 1-.35-.46V70.42a.41.41 0 0 1 .46-.34h2.69c4.61 0 6.58 2 6.58 8.08s-2.05 7.9-6.68 7.9zm37.39-22.58a.84.84 0 0 0-.84-.75h-6.38c-.46 0-.68.29-.84.75l-11.07 50.19a.5.5 0 0 0 0 .21.59.59 0 0 0 .64.54h6.49a.78.78 0 0 0 .81-.75l1.91-10.46h10.27l2 10.43a.79.79 0 0 0 .84.73H148a.6.6 0 0 0 .37-.73zM129.3 96.4l3.8-19.23h.24L137 96.4zM176.28 71c-1.78-5.6-5.79-8.29-12.55-8.29h-12a.72.72 0 0 0-.67.75v50.27a.73.73 0 0 0 .75.7h11.94c6.76 0 10.72-2.75 12.55-8.3.94-2.8 1.32-6.3 1.32-17.56s-.42-14.85-1.34-17.57zm-8 32.3a5.1 5.1 0 0 1-5.39 3.72h-3.39a.4.4 0 0 1-.32-.46v-36a.24.24 0 0 1 0-.12.4.4 0 0 1 .45-.34h3.29a5.1 5.1 0 0 1 5.39 3.72c.62 1.91.91 4.42.91 14.76s-.29 12.86-.91 14.74zm12.63-39.82a.74.74 0 0 1 .68-.75h21.31a.73.73 0 0 1 .75.7v5.92a.73.73 0 0 1-.67.76h-13.47a.41.41 0 0 0-.46.34.24.24 0 0 0 0 .12v13.57a.41.41 0 0 0 .34.46h11.67a.74.74 0 0 1 .76.7v5.9a.72.72 0 0 1-.68.75h-11.63a.41.41 0 0 0-.46.35.21.21 0 0 0 0 .11v14.15a.4.4 0 0 0 .34.45h13.48a.73.73 0 0 1 .75.7v5.9a.73.73 0 0 1-.67.76h-21.31a.73.73 0 0 1-.75-.7v-.06zm53.72 50.16l-7.3-22.33c3.88-2.21 6.17-6.47 6.17-13.23 0-11.34-5.55-15.35-14.74-15.35h-10.5a.73.73 0 0 0-.68.75v50.21a.73.73 0 0 0 .76.7H215a.72.72 0 0 0 .68-.75V93.73a.2.2 0 0 1 0-.11.41.41 0 0 1 .46-.35h3.87l6.31 20.61a.77.77 0 0 0 .83.54h7.06c.42-.03.58-.42.42-.78zm-15.95-27.58H216a.4.4 0 0 1-.34-.45V70.54a.24.24 0 0 1 0-.12.4.4 0 0 1 .45-.34h2.7c4.6 0 6.57 2 6.57 8.08s-1.99 7.9-6.7 7.9z"/></svg>