<svg xmlns="http://www.w3.org/2000/svg" viewBox="0 0 170 40"><path fill="#FFD800" d="M20 40a20 20 0 1 1 0-40 20 20 0 0 1 0 40zm0-18.27a1.73 1.73 0 1 0 0-3.46 1.73 1.73 0 0 0 0 3.46z"/><path fill="#191919" d="M52.86 26.58c1.62 0 2.67-.86 3.4-1.8v1.55h4V14.97h-4v6.15c0 1.24-.7 1.91-1.65 1.91-.97 0-1.62-.67-1.62-1.9v-6.16H49v7.43c0 2.59 1.45 4.18 3.86 4.18zm9.54 3.11V14.97h3.99v1.51a4.16 4.16 0 0 1 3.44-1.76c2.71 0 5.04 2.24 5.04 5.92 0 3.7-2.33 5.94-5.02 5.94a4.27 4.27 0 0 1-3.46-1.64v4.75h-4zm6.21-6.45c1.3 0 2.33-1.05 2.33-2.62 0-1.5-1.02-2.56-2.33-2.56-1.28 0-2.3 1.07-2.3 2.6 0 1.51 1.02 2.58 2.3 2.58zm8.07 3.09h3.99V11h-4v15.33zm12.01.27c-3.63 0-6.26-2.66-6.26-5.94 0-3.23 2.65-5.94 6.3-5.94 3.63 0 6.26 2.66 6.26 5.94 0 3.23-2.65 5.94-6.3 5.94zm.04-3.38c1.45 0 2.37-1.15 2.37-2.56 0-1.39-1-2.56-2.41-2.56-1.45 0-2.37 1.15-2.37 2.56 0 1.39 1 2.56 2.41 2.56zm11.2 3.36c-2.17 0-3.83-1.24-3.83-3.55 0-2.35 1.79-3.57 4.46-3.57 1.04 0 2.07.21 2.72.44v-.18c0-1.18-.73-1.85-2.26-1.85a8 8 0 0 0-3.13.63l-.82-2.82c1.28-.52 2.64-.88 4.6-.88 2.03 0 3.42.48 4.32 1.39.86.84 1.22 2.01 1.22 3.6v6.54h-3.95v-1.18a4.28 4.28 0 0 1-3.34 1.43zm1.42-2.5c1.16 0 1.98-.73 1.98-1.87v-.52a4.18 4.18 0 0 0-1.56-.3c-1.15 0-1.82.57-1.82 1.45 0 .78.58 1.24 1.4 1.24zm12.5 2.5c-2.69 0-5.02-2.24-5.02-5.92 0-3.7 2.3-5.94 5-5.94 1.72 0 2.73.77 3.48 1.63V11h4v15.33h-4v-1.51a4.21 4.21 0 0 1-3.46 1.76zm1.22-3.34c1.28 0 2.3-1.07 2.3-2.62 0-1.5-1.02-2.56-2.3-2.56-1.28 0-2.33 1.05-2.33 2.6 0 1.51 1.05 2.58 2.33 2.58zm13.86 3.36c2.5 0 4-1.05 5.06-2.6l-2.71-1.95c-.63.73-1.2 1.2-2.14 1.2-1.35 0-2.27-1.12-2.27-2.59 0-1.43.88-2.56 2.33-2.56.86 0 1.51.36 2.06 1.11l2.66-1.93a5.37 5.37 0 0 0-4.85-2.54 5.9 5.9 0 0 0-6.09 5.92 5.87 5.87 0 0 0 5.95 5.94zm9.72-.02c-2.16 0-3.82-1.24-3.82-3.55 0-2.35 1.78-3.57 4.45-3.57 1.05 0 2.08.21 2.73.44v-.18c0-1.18-.74-1.85-2.27-1.85a8 8 0 0 0-3.13.63l-.82-2.82c1.28-.52 2.65-.88 4.6-.88 2.04 0 3.43.48 4.33 1.39.86.84 1.22 2.01 1.22 3.6v6.54h-3.95v-1.18a4.28 4.28 0 0 1-3.34 1.43zm1.43-2.5c1.15 0 1.97-.73 1.97-1.87v-.52a4.18 4.18 0 0 0-1.55-.3c-1.16 0-1.83.57-1.83 1.45 0 .78.59 1.24 1.4 1.24zm7.9 2.25h3.98V22.8c0-2.62 1.18-3.82 3.26-3.82h.33v-4.2c-1.89-.08-2.94.92-3.59 2.48v-2.3h-3.99v11.37zm14.4.27c-3.57 0-6.1-2.37-6.1-5.94 0-3.32 2.38-5.94 5.74-5.94 3.93 0 5.73 2.87 5.73 6.21 0 .26 0 .55-.02.82h-7.6c.32 1.24 1.22 1.87 2.46 1.87.94 0 1.7-.36 2.52-1.15l2.2 1.82a5.95 5.95 0 0 1-4.93 2.31zm-2.31-6.88h3.95c-.15-1.26-.89-2.06-1.98-2.06-1.05 0-1.76.82-1.97 2.06z"/></svg>