<svg xmlns="http://www.w3.org/2000/svg" width="580" height="204" viewBox="0 0 580 204"><path fill="#FFDB1A" fill-rule="evenodd" d="M334.602-25.29h7.993L313.19 34.948h-7.99l29.402-60.24zm11.732 19.263v-8.68L377.927-.074v7.63l-.335.154-31.258 14.483v-8.616l21.943-9.775-21.943-9.83zm89.3-19.264h7.992L414.22 34.95h-7.991l29.404-60.24zm11.731 19.264v-8.68L478.957-.074v7.63l-.334.154-31.258 14.483v-8.616l21.94-9.775-21.94-9.83zm89.298-19.264h7.993l-29.405 60.24h-7.992l29.404-60.24zm11.733 19.264v-8.68L579.988-.074v7.63l-.335.154-31.257 14.483v-8.616l21.94-9.776-21.94-9.83zM334.602 59.205h7.993l-29.405 60.24h-7.99v-.002l29.402-60.238zm11.732 19.263v-8.68l31.593 14.634v7.633l-.335.154-31.258 14.48v-8.616l21.943-9.773-21.943-9.832zm59.895 40.977l29.404-60.24h7.993l-29.405 60.24h-7.992zm41.136-40.977v-8.68l31.592 14.634v7.633l-.334.154-31.258 14.48v-8.616l21.94-9.773-21.94-9.832zm59.894 40.977l29.404-60.24h7.993l-29.405 60.24h-7.992zm41.137-40.977v-8.68l31.592 14.634v7.633l-.335.155-31.257 14.48v-8.617l21.94-9.773-21.94-9.832zM334.602 143.7h7.993l-29.405 60.24h-7.99l29.402-60.24zm11.732 19.264v-8.68l31.593 14.636v7.631l-.335.153-31.258 14.482v-8.617l21.943-9.773-21.943-9.832zm89.3-19.264h7.992l-29.406 60.24h-7.991l29.404-60.24zm11.731 19.264v-8.68l31.592 14.636v7.631l-.334.153-31.258 14.482v-8.617l21.94-9.773-21.94-9.832zm89.298-19.264h7.993l-29.405 60.24h-7.992l29.404-60.24zm11.733 19.264v-8.68l31.592 14.636v7.63l-.335.155-31.257 14.48v-8.616l21.94-9.774-21.94-9.831zM29.713-25.291h7.993L8.301 34.95H.31l29.402-60.24zM41.445-6.027v-8.68L73.038-.074v7.63l-.335.154-31.258 14.483v-8.616l21.942-9.775-21.942-9.83zm89.299-19.264h7.993L109.33 34.95h-7.991l29.404-60.24zm11.732 19.264v-8.68L174.068-.074v7.63l-.334.154-31.258 14.483v-8.616l21.94-9.775-21.94-9.83zm89.298-19.264h7.993l-29.405 60.24h-7.992l29.404-60.24zm11.733 19.264v-8.68L275.099-.074v7.63l-.335.154-31.257 14.483v-8.616l21.94-9.776-21.94-9.83zM29.713 59.205h7.993l-29.405 60.24H.31v-.002l29.402-60.238zm11.732 19.263v-8.68l31.593 14.634v7.633l-.335.154-31.258 14.48v-8.616L63.387 88.3l-21.942-9.832zm59.894 40.977l29.405-60.24h7.993l-29.406 60.24h-7.992zm41.137-40.977v-8.68l31.592 14.634v7.633l-.334.154-31.258 14.48v-8.616l21.94-9.773-21.94-9.832zm59.893 40.977l29.405-60.24h7.993l-29.405 60.24h-7.993zm41.138-40.977v-8.68l31.592 14.634v7.633l-.335.155-31.257 14.48v-8.617l21.94-9.773-21.94-9.832zM29.713 143.7h7.993L8.301 203.94H.31l29.402-60.24zm11.732 19.264v-8.68l31.593 14.636v7.631l-.335.153-31.258 14.482v-8.617l21.942-9.773-21.942-9.832zm89.299-19.264h7.993l-29.406 60.24h-7.991l29.404-60.24zm11.732 19.264v-8.68l31.592 14.636v7.631l-.334.153-31.258 14.482v-8.617l21.94-9.773-21.94-9.832zm89.298-19.264h7.993l-29.405 60.24h-7.992l29.404-60.24zm11.733 19.264v-8.68l31.592 14.636v7.63l-.335.155-31.257 14.48v-8.616l21.94-9.774-21.94-9.831z"/></svg>