<svg xmlns="http://www.w3.org/2000/svg" width="282" height="277" viewBox="0 0 282 277"><g fill="none" fill-rule="evenodd"><path fill="#6223D3" d="M47.376.314v46.444H.695v31.166h46.68v46.445h32.157V77.924h46.682V46.758H79.532V.314z"/><path fill="#EF4319" d="M203.058.314v46.444h-46.682v31.166h46.682v46.445h32.156V77.924h46.68V46.758h-46.68V.314z"/><path fill="#00DAAD" d="M266.593 193.635l1.203-2.177-28.092-18.355-1.47 2.222c-27.898 42.14-57.684 60.12-99.593 60.12-41.905 0-71.696-17.98-99.62-60.122l-1.471-2.22-28.092 18.355 1.205 2.177c30.735 55.64 72.598 82.684 127.978 82.684 55.36 0 97.216-27.044 127.952-82.684"/></g></svg>