<svg xmlns="http://www.w3.org/2000/svg" width="163" height="201" viewBox="0 0 163 201"><path d="M25.422.578h6.81L7.194 51.856H.391zm19.452 0h6.809l-25.03 51.278h-6.81L44.873.578zm36.605 0h6.809L63.252 51.856h-6.804zm19.451 0h6.81L82.71 51.856H75.9zm36.606 0h6.808L119.31 51.856h-6.805zm19.45 0h6.81l-25.03 51.278h-6.81zm36.606 0h6.809l-25.036 51.278h-6.804zm19.451 0h6.81l-25.03 51.278h-6.81zM25.422 74.668h6.81L7.194 125.945H.391zm-5.579 51.278l25.03-51.278h6.81l-25.03 51.278zm68.445-51.278l-25.036 51.278h-6.804l25.031-51.278zM75.9 125.946l25.03-51.278h6.81l-25.031 51.278h-6.81zm68.444-51.278l-25.036 51.278h-6.803l25.03-51.278h6.81zm-12.388 51.278l25.03-51.278h6.81l-25.03 51.278zm68.445-51.278l-25.036 51.278h-6.804l25.031-51.278zm12.642 0h6.81l-25.03 51.277h-6.81zm-187.621 74.09h6.81L7.194 200.035H.391l25.031-51.279zm19.452 0h6.809l-25.03 51.278h-6.81l25.03-51.279zm36.605 0h6.809l-25.036 51.278h-6.804l25.031-51.279zm19.451 0h6.81l-25.03 51.278H75.9l25.03-51.279zm36.606 0h6.808l-25.035 51.278h-6.805l25.032-51.279zm19.45 0h6.81l-25.03 51.278h-6.81l25.03-51.279zm36.606 0h6.809l-25.036 51.278h-6.804l25.031-51.279zm19.451 0h6.81l-25.03 51.278h-6.81l25.03-51.279z" fill="#00daad" fill-rule="evenodd"/></svg>