<svg xmlns="http://www.w3.org/2000/svg" width="49" height="55" viewBox="0 0 49 55"><path fill="#00DAAD" fill-rule="evenodd" d="M21.8 6.477C13.02 12.287 9.274 18.49 9.274 27.219c0 8.727 3.746 14.932 12.526 20.747l.463.307-3.827 5.849-.453-.249C6.395 47.508.762 38.79.762 27.22.762 15.653 6.395 6.936 17.983.57l.453-.248 3.828 5.85-.464.306zM30.82.571c11.588 6.4 17.22 15.118 17.22 26.648 0 11.533-5.632 20.252-17.22 26.653l-.453.25-3.823-5.85.463-.306c8.777-5.816 12.521-12.02 12.521-20.747 0-8.729-3.744-14.932-12.52-20.742l-.464-.306L30.367.32l.454.25z"/></svg>