<svg xmlns="http://www.w3.org/2000/svg" width="270" height="213" viewBox="0 0 270 213"><path fill="#EF4319" fill-rule="evenodd" d="M253.417 161.378l-.437-.241-3.68 5.633.445.294c8.451 5.595 12.058 11.57 12.058 19.976 0 8.403-3.607 14.378-12.058 19.98l-.445.295 3.68 5.633.437-.242C264.577 206.542 270 198.147 270 187.04c0-11.104-5.423-19.498-16.583-25.662m-8.687 5.688l.447-.296-3.688-5.63-.435.238c-11.16 6.126-16.583 14.52-16.583 25.662 0 11.143 5.423 19.54 16.583 25.666l.435.24 3.688-5.631-.447-.295c-8.455-5.602-12.064-11.577-12.064-19.98 0-8.407 3.609-14.38 12.064-19.974m-66.137-5.688l-.436-.241-3.679 5.633.445.294c8.45 5.595 12.056 11.57 12.056 19.976 0 8.403-3.606 14.378-12.056 19.98l-.445.295 3.679 5.633.436-.242c11.16-6.162 16.583-14.559 16.583-25.666 0-11.106-5.423-19.5-16.583-25.662m-8.686 5.686l.447-.294-3.687-5.63-.435.238c-11.16 6.128-16.585 14.52-16.585 25.662 0 11.143 5.426 19.538 16.585 25.666l.435.24 3.687-5.631-.447-.295c-8.456-5.602-12.063-11.577-12.063-19.98 0-8.407 3.607-14.38 12.063-19.976m-66.136-5.686l-.436-.241-3.68 5.633.445.294c8.45 5.597 12.058 11.57 12.058 19.976 0 8.401-3.607 14.377-12.058 19.98l-.444.295 3.68 5.633.435-.242c11.158-6.164 16.582-14.559 16.582-25.666 0-11.106-5.424-19.498-16.582-25.662m-8.688 5.686l.447-.294-3.686-5.63-.435.238c-11.16 6.128-16.585 14.52-16.585 25.662 0 11.143 5.425 19.538 16.585 25.666l.435.24 3.686-5.631-.447-.295c-8.455-5.602-12.062-11.577-12.062-19.98 0-8.407 3.607-14.38 12.062-19.976m-66.135-5.686l-.437-.241-3.68 5.633.445.294c8.452 5.595 12.058 11.57 12.058 19.976 0 8.403-3.606 14.378-12.058 19.98l-.445.295 3.68 5.633.437-.242c11.158-6.164 16.581-14.559 16.581-25.666 0-11.106-5.423-19.498-16.58-25.662m-8.689 5.686l.446-.294-3.687-5.63-.433.238C5.426 167.506 0 175.898 0 187.04c0 11.143 5.426 19.538 16.586 25.666l.433.24 3.687-5.631-.446-.295c-8.456-5.602-12.063-11.577-12.063-19.98 0-8.407 3.607-14.38 12.063-19.976M253.417 80.81l-.437-.242-3.68 5.634.445.293c8.451 5.596 12.058 11.572 12.058 19.977 0 8.402-3.607 14.378-12.058 19.98l-.445.294 3.68 5.634.437-.242C264.577 125.974 270 117.58 270 106.472c0-11.104-5.423-19.498-16.583-25.662m-8.687 5.687l.447-.295-3.688-5.632-.435.24c-11.16 6.126-16.583 14.52-16.583 25.662 0 11.143 5.423 19.54 16.583 25.666l.435.24 3.688-5.632-.447-.294c-8.455-5.602-12.064-11.578-12.064-19.98 0-8.407 3.609-14.381 12.064-19.975m-66.137-5.687l-.436-.242-3.679 5.634.445.293c8.45 5.596 12.056 11.572 12.056 19.977 0 8.402-3.606 14.378-12.056 19.98l-.445.294 3.679 5.634.436-.242c11.16-6.162 16.583-14.559 16.583-25.666 0-11.105-5.423-19.5-16.583-25.662m-8.686 5.685l.447-.293-3.687-5.632-.435.24c-11.16 6.128-16.585 14.52-16.585 25.662 0 11.143 5.426 19.537 16.585 25.666l.435.24 3.687-5.632-.447-.294c-8.456-5.602-12.063-11.578-12.063-19.98 0-8.407 3.607-14.381 12.063-19.977m-66.136-5.685l-.436-.242-3.68 5.634.445.293c8.45 5.598 12.058 11.572 12.058 19.977 0 8.401-3.607 14.376-12.058 19.98l-.444.294 3.68 5.634.435-.242c11.158-6.164 16.582-14.559 16.582-25.666 0-11.105-5.424-19.498-16.582-25.662m-8.688 5.685l.447-.293-3.686-5.632-.435.24c-11.16 6.128-16.585 14.52-16.585 25.662 0 11.143 5.425 19.537 16.585 25.666l.435.24 3.686-5.632-.447-.294c-8.455-5.602-12.062-11.578-12.062-19.98 0-8.407 3.607-14.381 12.062-19.977M28.948 80.81l-.437-.242-3.68 5.634.445.293c8.452 5.596 12.058 11.572 12.058 19.977 0 8.402-3.606 14.378-12.058 19.98l-.445.294 3.68 5.634.437-.242c11.158-6.164 16.581-14.559 16.581-25.666 0-11.105-5.423-19.498-16.58-25.662m-8.689 5.685l.446-.293-3.687-5.632-.433.24C5.426 86.938 0 95.33 0 106.472c0 11.143 5.426 19.537 16.586 25.666l.433.24 3.687-5.632-.446-.294c-8.456-5.602-12.063-11.578-12.063-19.98 0-8.407 3.607-14.381 12.063-19.977m229.485-40.61l-.445.293 3.68 5.633.437-.241C264.577 45.406 270 37.011 270 25.903c0-11.102-5.423-19.497-16.583-25.662L252.98 0l-3.68 5.633.445.294c8.451 5.596 12.058 11.572 12.058 19.976 0 8.403-3.607 14.379-12.058 19.981M244.73 5.93l.447-.296L241.49.002l-.435.239c-11.16 6.127-16.583 14.522-16.583 25.662 0 11.143 5.423 19.54 16.583 25.667l.435.24 3.688-5.632-.447-.294c-8.455-5.602-12.064-11.578-12.064-19.98 0-8.408 3.609-14.381 12.064-19.975M178.593.241L178.157 0l-3.679 5.633.445.294c8.45 5.596 12.056 11.572 12.056 19.976 0 8.403-3.606 14.379-12.056 19.981l-.445.294 3.679 5.633.436-.241c11.16-6.162 16.583-14.559 16.583-25.667 0-11.105-5.423-19.5-16.583-25.662m-8.686 5.686l.447-.294-3.687-5.631-.435.239c-11.16 6.129-16.585 14.522-16.585 25.662 0 11.143 5.426 19.538 16.585 25.667l.435.24 3.687-5.632-.447-.294c-8.456-5.602-12.063-11.578-12.063-19.98 0-8.408 3.607-14.381 12.063-19.977M103.771.241L103.335 0l-3.68 5.633.445.294c8.45 5.597 12.058 11.572 12.058 19.976 0 8.401-3.607 14.377-12.058 19.981l-.444.294 3.68 5.633.435-.241c11.158-6.164 16.582-14.559 16.582-25.667 0-11.105-5.424-19.497-16.582-25.662m-8.688 5.686l.447-.294L91.844.002l-.435.239C80.249 6.37 74.824 14.763 74.824 25.903c0 11.143 5.425 19.538 16.585 25.667l.435.24 3.686-5.632-.447-.294c-8.455-5.602-12.062-11.578-12.062-19.98 0-8.408 3.607-14.381 12.062-19.977M28.948.241L28.511 0l-3.68 5.633.445.294c8.452 5.596 12.058 11.572 12.058 19.976 0 8.403-3.606 14.379-12.058 19.981l-.445.294 3.68 5.633.437-.241C40.106 45.406 45.53 37.011 45.53 25.903c0-11.105-5.423-19.497-16.58-25.662M8.196 25.903c0 8.403 3.607 14.379 12.063 19.981l.446.294-3.687 5.631-.433-.239C5.426 45.441 0 37.046 0 25.903 0 14.763 5.426 6.37 16.586.241l.433-.24 3.687 5.632-.446.294c-8.456 5.596-12.063 11.57-12.063 19.976"/></svg>