<svg xmlns="http://www.w3.org/2000/svg" width="220" height="248" viewBox="0 0 220 248"><path fill="#FFDB1A" fill-rule="evenodd" d="M195.681 0v14.323h-14.396v9.618h14.396v14.321h9.926v-14.32H220v-9.619h-14.393V0h-9.926zm-48.008 0v14.323h-14.394v9.618h14.394v14.321h9.925v-14.32h14.397v-9.619h-14.397V0h-9.925zM62.4 0v14.323H48.008v9.618h14.393v14.321h9.925v-14.32H86.72v-9.619H72.326V0h-9.925zM14.396 0v14.323H0v9.618h14.396v14.321h9.925v-14.32h14.394v-9.619H24.321V0h-9.925zM195.68 104.464v14.323h-14.396v9.619h14.396v14.32h9.926v-14.32H220v-9.62h-14.393v-14.322h-9.926zm-48.008 0v14.323h-14.394v9.619h14.394v14.32h9.925v-14.32h14.397v-9.62h-14.397v-14.322h-9.925zm-85.272 0v14.323H48.008v9.619h14.393v14.32h9.925v-14.32H86.72v-9.62H72.326v-14.322h-9.925zm-48.005 0v14.323H0v9.619h14.396v14.32h9.925v-14.32h14.394v-9.62H24.321v-14.322h-9.925zM195.68 208.926v14.324h-14.396v9.62h14.396v14.32h9.926v-14.32H220v-9.62h-14.393v-14.324h-9.926zm-48.008 0v14.324h-14.394v9.62h14.394v14.32h9.925v-14.32h14.397v-9.62h-14.397v-14.324h-9.925zm-85.272 0v14.324H48.008v9.62h14.393v14.32h9.925v-14.32H86.72v-9.62H72.326v-14.324h-9.925zm-48.005 0v14.324H0v9.62h14.396v14.32h9.925v-14.32h14.394v-9.62H24.321v-14.324h-9.925z"/></svg>