<svg xmlns="http://www.w3.org/2000/svg" width="260" height="3000" viewBox="0 0 260 3000"><path d="M120.383 22.646C88.09 44.016 74.31 66.832 74.31 98.938c0 32.103 13.78 54.925 46.073 76.312l1.702 1.13-14.074 21.513-1.666-.914C63.72 173.566 43 141.498 43 98.939 43 56.392 63.72 24.33 106.345.918l1.665-.913 14.077 21.515-1.705 1.126zM153.563.922c42.62 23.545 63.337 55.607 63.337 98.016 0 42.423-20.717 74.492-63.339 98.036l-1.668.923-14.06-21.52 1.7-1.127c32.283-21.39 46.056-44.211 46.056-76.312 0-32.104-13.773-54.921-46.054-76.291l-1.702-1.127L151.893 0l1.668.922z" fill="#ffdb1a" fill-rule="evenodd"/><path d="M43.167 499.379h29.736v42.948h43.167v28.82H72.903v42.95H43.167v-42.95H0v-28.82h43.167zm143.963 0h29.735v42.948h43.167v28.82h-43.167v42.95H187.13v-42.95h-43.169v-28.82h43.169z" fill="#e30083" fill-rule="evenodd"/><path d="M105.624 914.407h28.185l-103.622 212.29H2zm41.335 67.894v-30.61l111.345 51.586v26.897l-111.344 51.587v-30.396l77.294-34.426-77.294-34.638z" fill="#00daad" fill-rule="evenodd"/><path d="M127.624 1427.407h28.185l-103.64 212.29H24zm80.531 0h28.185l-103.623 212.29H104.53z" fill="#ffdb1a" fill-rule="evenodd"/><path d="M120.383 1963.646c-32.293 21.37-46.073 44.186-46.073 76.292 0 32.103 13.78 54.925 46.073 76.312l1.702 1.13-14.074 21.513-1.666-.914C63.72 2114.566 43 2082.498 43 2039.939c0-42.547 20.72-74.609 63.345-98.021l1.665-.913 14.077 21.515-1.705 1.126zm33.18-21.724c42.62 23.545 63.337 55.607 63.337 98.016 0 42.423-20.717 74.492-63.339 98.036l-1.668.923-14.06-21.52 1.7-1.127c32.283-21.39 46.056-44.211 46.056-76.312 0-32.104-13.773-54.921-46.054-76.291l-1.702-1.127 14.06-21.52 1.668.922z" fill="#e30083" fill-rule="evenodd"/><path d="M105.624 2440.407h28.185l-103.622 212.29H2zm41.335 67.894v-30.61l111.345 51.586v26.897l-111.344 51.587v-30.396l77.294-34.426-77.294-34.638z" fill="#00daad" fill-rule="evenodd"/></svg>