<svg xmlns="http://www.w3.org/2000/svg" width="12" height="18" viewBox="0 0 12 18"><path fill="#B4BDC7" fill-rule="evenodd" d="M11.395 3.84a5.955 5.955 0 0 0-1.255-1.898A5.824 5.824 0 0 0 8.279.662 5.717 5.717 0 0 0 6 .192c-.79 0-1.557.159-2.28.47A5.954 5.954 0 0 0 .605 3.84a6.035 6.035 0 0 0-.46 2.326c0 1.354.94 3.536 2.791 6.485a60.15 60.15 0 0 0 2.749 3.99l.316.414.315-.414a60.089 60.089 0 0 0 2.75-3.99c1.85-2.95 2.79-5.131 2.79-6.485a6.03 6.03 0 0 0-.46-2.325zM6 8.215c-1.253 0-2.27-1.036-2.27-2.315S4.748 3.584 6 3.584c1.254 0 2.27 1.036 2.27 2.315S7.253 8.214 6 8.214z"/></svg>