<svg xmlns="http://www.w3.org/2000/svg" width="220" height="130"><rect width="100%" height="100%" fill="none"/><g class="currentLayer"><title>Layer 1</title><path d="M219.755 84.7h-6.845c-10.89 0-19.754-8.835-19.754-19.688 0-10.856 8.864-19.687 19.754-19.687h6.845V.31H.705v45.016h6.846c10.89 0 19.754 8.831 19.754 19.687 0 10.853-8.864 19.687-19.754 19.687H.706v45.013h219.049V84.7zm-13.69 31.233H14.395v-18.16c15.168-3.169 26.6-16.653 26.6-32.76 0-16.108-11.432-29.592-26.6-32.765v-18.16h191.668v18.16c-15.168 3.173-26.599 16.657-26.599 32.764 0 16.108 11.432 29.592 26.6 32.761v18.16z" fill="#FFF"/><path fill="#fff" color="#000" d="M62 41.529h98v46H62z"/></g></svg>