<svg xmlns="http://www.w3.org/2000/svg" xmlns:xlink="http://www.w3.org/1999/xlink" width="198" height="40" viewBox="0 0 198 40"><defs><linearGradient id="a"><stop offset="0"/><stop offset="1" stop-opacity="0"/></linearGradient><path id="c" d="M0 59.848h187.513V.018H0z"/><linearGradient xlink:href="#a" id="b" y1="29.4" x2="187.513" y2="29.4" gradientUnits="userSpaceOnUse"/></defs><g fill="none" fill-rule="evenodd"><path d="M47.56 1.503h-2.836l.806 4.623-3.599-2.833-1.422 2.472L44.587 7.4l-4.084 1.442 1.414 2.471 3.428-2.766-.526 4.54 2.827-.005-.804-4.385 3.557 2.757 1.388-2.413-4.359-1.823 4.428-1.638-1.459-2.42-3.42 2.64z" fill="#ffdb1a"/><path d="M20.613 1.549L0 36.239h13.837l20.562-34.69z" fill="#6223d3"/><g transform="translate(0 1.486)"><path d="M60.478 29.198c0-1.838-1.239-3.057-2.705-3.057-1.467 0-2.686 1.219-2.686 3.099 0 1.838 1.219 3.057 2.686 3.057 1.466 0 2.705-1.198 2.705-3.099zm-8.49-5.515h3.14v1.59c.765-1.032 1.818-1.796 3.45-1.796 2.582 0 5.04 2.024 5.04 5.763 0 3.697-2.417 5.721-5.04 5.721-1.673 0-2.706-.764-3.45-1.652v4.75h-3.14V23.684z" fill="#242424"/><mask id="d" fill="#fff" stroke="url(#b)"><use xlink:href="#c" width="100%" height="100%"/></mask><path d="M65.776 34.755h3.14V23.683h-3.14zm-.083-12.29h3.305v-2.79h-3.305zm6.396 9.15v-5.247h-1.322v-2.685h1.322v-2.83h3.14v2.83h2.602v2.685h-2.603v4.73c0 .724.31 1.075 1.013 1.075.578 0 1.094-.145 1.549-.393v2.52c-.661.393-1.426.64-2.479.64-1.921 0-3.222-.764-3.222-3.325m14.937-3.264c-.186-1.404-1.012-2.354-2.334-2.354-1.302 0-2.148.93-2.397 2.354h4.73zm-7.808.889c0-3.16 2.251-5.763 5.474-5.763 3.697 0 5.391 2.87 5.391 6.01 0 .248-.02.538-.041.827h-7.705c.31 1.425 1.301 2.169 2.706 2.169 1.053 0 1.818-.331 2.685-1.136l1.797 1.59c-1.033 1.28-2.52 2.066-4.523 2.066-3.326 0-5.784-2.334-5.784-5.763zm12.92-5.557h3.139v2.23c.64-1.528 1.673-2.52 3.532-2.436v3.284h-.165c-2.086 0-3.367 1.26-3.367 3.904v4.09h-3.14V23.683zm7.509 5.536c0-3.16 2.416-5.763 5.804-5.763 2.086 0 3.367.785 4.4 1.942l-1.839 1.859c-.681-.641-1.342-1.095-2.582-1.095-1.57 0-2.685 1.384-2.685 3.057 0 1.694 1.095 3.057 2.81 3.057 1.053 0 1.776-.454 2.54-1.177l1.839 1.859c-1.075 1.177-2.314 2.024-4.524 2.024-3.326 0-5.763-2.561-5.763-5.763m11.587 4.069l1.343-2.065c1.198.867 2.457 1.322 3.49 1.322.91 0 1.322-.33 1.322-.868 0-.682-1.074-.909-2.292-1.28-1.55-.455-3.305-1.178-3.305-3.368 0-2.251 1.817-3.511 4.048-3.511 1.405 0 2.933.475 4.131 1.28l-1.198 2.17c-1.094-.64-2.19-1.033-2.995-1.033-.764 0-1.156.33-1.156.805 0 .62 1.053.91 2.251 1.322 1.55.517 3.346 1.26 3.346 3.326 0 2.458-1.838 3.573-4.234 3.573a7.756 7.756 0 0 1-4.751-1.673m10.079 0l1.343-2.065c1.198.867 2.458 1.322 3.49 1.322.91 0 1.322-.33 1.322-.868 0-.682-1.074-.909-2.292-1.28-1.55-.455-3.305-1.178-3.305-3.368 0-2.251 1.818-3.511 4.048-3.511 1.405 0 2.934.475 4.132 1.28l-1.198 2.17c-1.095-.64-2.19-1.033-2.996-1.033-.764 0-1.157.33-1.157.805 0 .62 1.054.91 2.252 1.322 1.55.517 3.347 1.26 3.347 3.326 0 2.458-1.84 3.573-4.235 3.573a7.753 7.753 0 0 1-4.751-1.673m22.475-4.068c0-3.161 2.417-5.764 5.805-5.764 2.086 0 3.367.785 4.4 1.942l-1.839 1.859c-.681-.64-1.342-1.095-2.582-1.095-1.57 0-2.685 1.384-2.685 3.057 0 1.694 1.095 3.057 2.81 3.057 1.053 0 1.776-.454 2.54-1.177l1.839 1.859c-1.075 1.177-2.314 2.024-4.524 2.024-3.326 0-5.764-2.561-5.764-5.763m19.995.001c0-1.633-1.178-3.058-2.913-3.058-1.797 0-2.87 1.384-2.87 3.057 0 1.632 1.177 3.057 2.912 3.057 1.797 0 2.87-1.384 2.87-3.057m-8.882 0c0-3.18 2.562-5.763 6.012-5.763 3.429 0 5.97 2.54 5.97 5.763 0 3.181-2.562 5.763-6.012 5.763-3.429 0-5.97-2.54-5.97-5.763m13.815-5.556h3.14v1.57c.722-.93 1.652-1.777 3.242-1.777 2.376 0 3.76 1.57 3.76 4.11v7.168h-3.14v-6.176c0-1.487-.702-2.251-1.9-2.251s-1.963.764-1.963 2.251v6.176h-3.14V23.663zm13.138 2.685h-1.301v-2.582h1.301v-.702c0-1.22.31-2.107.888-2.686.578-.578 1.425-.867 2.54-.867.992 0 1.653.124 2.232.31v2.602a3.983 3.983 0 0 0-1.425-.268c-.723 0-1.137.372-1.137 1.198v.434h2.541v2.56h-2.5v8.387h-3.139zm-50.767 11.735h12.497v-2.4h-12.497zm-81.09 18.431" mask="url(#d)" fill="#242424"/></g></g></svg>