<svg xmlns="http://www.w3.org/2000/svg" xmlns:xlink="http://www.w3.org/1999/xlink" width="198" height="61" viewBox="0 0 198 61"><defs><path id="a" d="M0 59.848h187.513V.018H0z"/></defs><g fill="none" fill-rule="evenodd"><path fill="#FFDB1A" d="M47.56 1.152h-2.836l.806 4.623-3.599-2.833-1.422 2.472 4.078 1.635-4.084 1.442 1.414 2.471 3.428-2.766-.526 4.54 2.827-.005-.804-4.385 3.557 2.757 1.388-2.413-4.359-1.823 4.428-1.638-1.459-2.42-3.42 2.64z"/><path fill="#6223D3" d="M20.613 1.198L0 35.888h13.837l20.562-34.69z"/><g transform="translate(0 1.135)"><path fill="#242424" d="M60.478 29.198c0-1.838-1.239-3.057-2.705-3.057-1.467 0-2.686 1.219-2.686 3.099 0 1.838 1.219 3.057 2.686 3.057 1.466 0 2.705-1.198 2.705-3.099zm-8.49-5.515h3.14v1.59c.765-1.032 1.818-1.796 3.45-1.796 2.582 0 5.04 2.024 5.04 5.763 0 3.697-2.417 5.721-5.04 5.721-1.673 0-2.706-.764-3.45-1.652v4.75h-3.14V23.684z"/><mask id="b" fill="#fff"><use xlink:href="#a"/></mask><path fill="#242424" d="M65.776 34.755h3.14V23.683h-3.14v11.072zm-.083-12.29h3.305v-2.79h-3.305v2.79zm6.396 9.15v-5.247h-1.322v-2.685h1.322v-2.83h3.14v2.83h2.602v2.685h-2.603v4.73c0 .724.31 1.075 1.013 1.075.578 0 1.094-.145 1.549-.393v2.52c-.661.393-1.426.64-2.479.64-1.921 0-3.222-.764-3.222-3.325m14.937-3.264c-.186-1.404-1.012-2.354-2.334-2.354-1.302 0-2.148.93-2.397 2.354h4.73zm-7.808.889c0-3.16 2.251-5.763 5.474-5.763 3.697 0 5.391 2.87 5.391 6.01 0 .248-.02.538-.041.827h-7.705c.31 1.425 1.301 2.169 2.706 2.169 1.053 0 1.818-.331 2.685-1.136l1.797 1.59c-1.033 1.28-2.52 2.066-4.523 2.066-3.326 0-5.784-2.334-5.784-5.763zm12.92-5.557h3.139v2.23c.64-1.528 1.673-2.52 3.532-2.436v3.284h-.165c-2.086 0-3.367 1.26-3.367 3.904v4.09h-3.14V23.683zm7.509 5.536c0-3.16 2.416-5.763 5.804-5.763 2.086 0 3.367.785 4.4 1.942l-1.839 1.859c-.681-.641-1.342-1.095-2.582-1.095-1.57 0-2.685 1.384-2.685 3.057 0 1.694 1.095 3.057 2.81 3.057 1.053 0 1.776-.454 2.54-1.177l1.839 1.859c-1.075 1.177-2.314 2.024-4.524 2.024-3.326 0-5.763-2.561-5.763-5.763m11.587 4.069l1.343-2.065c1.198.867 2.457 1.322 3.49 1.322.91 0 1.322-.33 1.322-.868 0-.682-1.074-.909-2.292-1.28-1.55-.455-3.305-1.178-3.305-3.368 0-2.251 1.817-3.511 4.048-3.511 1.405 0 2.933.475 4.131 1.28l-1.198 2.17c-1.094-.64-2.19-1.033-2.995-1.033-.764 0-1.156.33-1.156.805 0 .62 1.053.91 2.251 1.322 1.55.517 3.346 1.26 3.346 3.326 0 2.458-1.838 3.573-4.234 3.573a7.756 7.756 0 0 1-4.751-1.673m10.079 0l1.343-2.065c1.198.867 2.458 1.322 3.49 1.322.91 0 1.322-.33 1.322-.868 0-.682-1.074-.909-2.292-1.28-1.55-.455-3.305-1.178-3.305-3.368 0-2.251 1.818-3.511 4.048-3.511 1.405 0 2.934.475 4.132 1.28l-1.198 2.17c-1.095-.64-2.19-1.033-2.996-1.033-.764 0-1.157.33-1.157.805 0 .62 1.054.91 2.252 1.322 1.55.517 3.347 1.26 3.347 3.326 0 2.458-1.84 3.573-4.235 3.573a7.753 7.753 0 0 1-4.751-1.673m22.475-4.068c0-3.161 2.417-5.764 5.805-5.764 2.086 0 3.367.785 4.4 1.942l-1.839 1.859c-.681-.64-1.342-1.095-2.582-1.095-1.57 0-2.685 1.384-2.685 3.057 0 1.694 1.095 3.057 2.81 3.057 1.053 0 1.776-.454 2.54-1.177l1.839 1.859c-1.075 1.177-2.314 2.024-4.524 2.024-3.326 0-5.764-2.561-5.764-5.763m19.995.001c0-1.633-1.178-3.058-2.913-3.058-1.797 0-2.87 1.384-2.87 3.057 0 1.632 1.177 3.057 2.912 3.057 1.797 0 2.87-1.384 2.87-3.057m-8.882 0c0-3.18 2.562-5.763 6.012-5.763 3.429 0 5.97 2.54 5.97 5.763 0 3.181-2.562 5.763-6.012 5.763-3.429 0-5.97-2.54-5.97-5.763m13.815-5.556h3.14v1.57c.722-.93 1.652-1.777 3.242-1.777 2.376 0 3.76 1.57 3.76 4.11v7.168h-3.14v-6.176c0-1.487-.702-2.251-1.9-2.251s-1.963.764-1.963 2.251v6.176h-3.14V23.663zm13.138 2.685h-1.301v-2.582h1.301v-.702c0-1.22.31-2.107.888-2.686.578-.578 1.425-.867 2.54-.867.992 0 1.653.124 2.232.31v2.602a3.983 3.983 0 0 0-1.425-.268c-.723 0-1.137.372-1.137 1.198v.434h2.541v2.56h-2.5v8.387h-3.139v-8.386zm-50.767 11.735h12.497v-2.4h-12.497zm-81.09 18.431l.806-.692c.607.918 1.229 1.412 2.26 1.412 1.116 0 1.935-.805 1.935-2.373v-6.625h1.13v6.611c0 1.158-.339 2.034-.904 2.6-.55.536-1.3.819-2.175.819-1.484 0-2.43-.735-3.052-1.752m8.476-1.158V50.82h1.088v4.266c0 1.356.735 2.204 2.02 2.204 1.243 0 2.19-.918 2.19-2.289V50.82h1.073v7.304H63.77v-1.272c-.495.791-1.243 1.427-2.5 1.427-1.767 0-2.798-1.187-2.798-2.924m8.815-4.535h1.088v1.272c.48-.79 1.243-1.426 2.5-1.426 1.766 0 2.798 1.186 2.798 2.924v4.535h-1.088v-4.267c0-1.356-.735-2.204-2.02-2.204-1.258 0-2.19.919-2.19 2.29v4.18h-1.088v-7.303zm14.056 3.222c-.127-1.328-.89-2.458-2.33-2.458-1.258 0-2.219 1.045-2.374 2.458h4.704zm-2.133 3.306c1.003 0 1.71-.41 2.303-1.032l.678.608c-.735.82-1.625 1.37-3.01 1.37-2.005 0-3.644-1.54-3.644-3.814 0-2.12 1.483-3.815 3.504-3.815 2.16 0 3.404 1.724 3.404 3.871 0 .1 0 .212-.014.382h-5.792c.155 1.54 1.286 2.43 2.571 2.43zm14.875-6.569c0-.975-.975-1.71-2.26-1.71-1.286 0-2.26.72-2.26 1.738 0 1.073 1.003 1.808 2.26 1.808s2.26-.735 2.26-1.836m.325 4.633c0-1.102-1.144-1.879-2.585-1.879s-2.585.777-2.585 1.907c0 1.003.96 1.851 2.585 1.851 1.624 0 2.585-.848 2.585-1.879m-6.3.028c0-1.172.847-2.006 2.034-2.43-.919-.423-1.695-1.13-1.695-2.302 0-1.526 1.568-2.614 3.376-2.614 1.808 0 3.376 1.088 3.376 2.642 0 1.144-.777 1.85-1.695 2.275 1.173.437 2.034 1.243 2.034 2.444 0 1.68-1.61 2.81-3.715 2.81-2.105 0-3.716-1.144-3.716-2.825m9.084-.989h3.927v-1.144h-3.927zm11.767-3.15c0-1.257-1.031-2.246-2.515-2.246-1.483 0-2.373 1.088-2.373 2.345 0 1.257.99 2.161 2.43 2.161 1.512 0 2.458-1.101 2.458-2.26m-5.806 5.778l.65-.862c.805.707 1.554 1.06 2.43 1.06 1.751 0 2.938-1.752 2.938-4.21v-.127c-.537.862-1.427 1.582-2.797 1.582-2.034 0-3.447-1.285-3.447-3.094 0-1.878 1.455-3.362 3.56-3.362 2.175 0 3.828 1.314 3.828 4.874 0 3.136-1.667 5.354-4.11 5.354-1.286 0-2.219-.523-3.052-1.215m9.62-.889v-4.408h-1.017v-.961h1.017v-2.204h1.088v2.204h2.317v.96h-2.317v4.267c0 .89.494 1.215 1.229 1.215.367 0 .678-.07 1.06-.254v.932c-.382.198-.792.31-1.315.31-1.172 0-2.062-.578-2.062-2.062m5.326-8.377h1.087v4.28c.48-.79 1.244-1.427 2.5-1.427 1.767 0 2.798 1.187 2.798 2.925v4.535h-1.088v-4.267c0-1.356-.734-2.204-2.02-2.204-1.257 0-2.19.919-2.19 2.289v4.182H118.1V47.812zm8.136 11.542c.65-.24.947-.566.947-1.088v-.141h-.509V56.64h1.3v1.272c0 1.144-.494 1.695-1.568 1.935l-.17-.494zm7.727-2.091l3.589-3.165c1.525-1.342 2.062-2.119 2.062-3.108 0-1.158-.918-1.893-1.992-1.893-1.13 0-1.864.594-2.655 1.696l-.82-.594c.89-1.328 1.822-2.104 3.56-2.104 1.78 0 3.066 1.186 3.066 2.825 0 1.44-.777 2.317-2.5 3.842l-2.642 2.345h5.24v1.018h-6.908v-.862zm15.851-4.083c0-2.161-1.187-4.097-3.023-4.097-1.851 0-3.01 1.893-3.01 4.097 0 2.161 1.187 4.097 3.038 4.097 1.85 0 2.995-1.907 2.995-4.097m-7.19 0c0-2.769 1.652-5.114 4.195-5.114s4.153 2.317 4.153 5.114c0 2.77-1.639 5.114-4.181 5.114-2.557 0-4.168-2.317-4.168-5.114m11.753-3.857l-1.864.58-.269-.904 2.416-.834h.82v9.96h-1.103zm9.239 1.456c0-.975-.975-1.71-2.26-1.71-1.286 0-2.26.72-2.26 1.738 0 1.073 1.002 1.808 2.26 1.808 1.257 0 2.26-.735 2.26-1.836m.325 4.633c0-1.102-1.144-1.879-2.585-1.879s-2.585.777-2.585 1.907c0 1.003.96 1.851 2.585 1.851 1.624 0 2.585-.848 2.585-1.879m-6.3.028c0-1.172.847-2.006 2.034-2.43-.919-.423-1.696-1.13-1.696-2.302 0-1.526 1.569-2.614 3.377-2.614 1.808 0 3.376 1.088 3.376 2.642 0 1.144-.777 1.85-1.695 2.275 1.172.437 2.034 1.243 2.034 2.444 0 1.68-1.61 2.81-3.715 2.81-2.105 0-3.716-1.144-3.716-2.825" mask="url(#b)"/></g></g></svg>